<?xml version="1.0" encoding="UTF-8"?>
<svg width="600" height="400" viewBox="0 0 600 400" xmlns="http://www.w3.org/2000/svg">
    <!-- Background -->
    <rect width="600" height="400" fill="#f8f9fa"/>
    
    <!-- Title -->
    <text x="300" y="40" text-anchor="middle" font-family="Arial" font-size="20" fill="#dc3545">
        Deadlock Scenario
    </text>

    <!-- Processes -->
    <g id="processes">
        <!-- P1 -->
        <rect x="100" y="120" width="120" height="50" rx="6" fill="#0d6efd" opacity="0.8"/>
        <text x="160" y="150" text-anchor="middle" font-family="Arial" font-size="16" fill="white">Process 1</text>
        
        <!-- P2 -->
        <rect x="380" y="120" width="120" height="50" rx="6" fill="#0d6efd" opacity="0.8"/>
        <text x="440" y="150" text-anchor="middle" font-family="Arial" font-size="16" fill="white">Process 2</text>
    </g>

    <!-- Resources -->
    <g id="resources">
        <!-- R1 -->
        <rect x="100" y="250" width="120" height="50" rx="6" fill="#198754" opacity="0.8"/>
        <text x="160" y="280" text-anchor="middle" font-family="Arial" font-size="16" fill="white">Resource A</text>
        
        <!-- R2 -->
        <rect x="380" y="250" width="120" height="50" rx="6" fill="#198754" opacity="0.8"/>
        <text x="440" y="280" text-anchor="middle" font-family="Arial" font-size="16" fill="white">Resource B</text>
    </g>

    <!-- Arrows showing the deadlock -->
    <g id="arrows" stroke="#6c757d" stroke-width="2" marker-end="url(#arrowhead)">
        <!-- P1 holds R1 -->
        <path d="M 160,170 C 160,200 160,220 160,250" fill="none"/>
        <!-- P1 wants R2 -->
        <path d="M 220,145 C 300,145 360,145 380,145" fill="none" stroke-dasharray="6,6"/>
        <!-- P2 holds R2 -->
        <path d="M 440,170 C 440,200 440,220 440,250" fill="none"/>
        <!-- P2 wants R1 -->
        <path d="M 380,145 C 300,145 240,145 220,145" fill="none" stroke-dasharray="6,6"/>
    </g>

    <!-- Arrow Marker -->
    <defs>
        <marker id="arrowhead" markerWidth="10" markerHeight="7" refX="9" refY="3.5" orient="auto">
            <polygon points="0 0, 10 3.5, 0 7" fill="#6c757d"/>
        </marker>
    </defs>

    <!-- Legend -->
    <g id="legend" transform="translate(200, 340)">
        <!-- Process Legend -->
        <rect x="0" y="0" width="20" height="20" fill="#0d6efd" opacity="0.8"/>
        <text x="30" y="15" font-family="Arial" font-size="14" fill="#212529">Process</text>
        
        <!-- Resource Legend -->
        <rect x="100" y="0" width="20" height="20" fill="#198754" opacity="0.8"/>
        <text x="130" y="15" font-family="Arial" font-size="14" fill="#212529">Resource</text>
        
        <!-- Hold Legend -->
        <line x1="200" y1="10" x2="240" y2="10" stroke="#6c757d" stroke-width="2"/>
        <text x="250" y="15" font-family="Arial" font-size="14" fill="#212529">Holds</text>
        
        <!-- Want Legend -->
        <line x1="320" y1="10" x2="360" y2="10" stroke="#6c757d" stroke-width="2" stroke-dasharray="6,6"/>
        <text x="370" y="15" font-family="Arial" font-size="14" fill="#212529">Wants</text>
    </g>

    <!-- Circular Wait Highlight -->
    <path d="M 220,145 C 300,145 300,145 380,145 C 440,145 440,200 440,250 C 440,280 440,280 440,280 C 300,280 300,280 160,280 C 160,280 160,200 160,170" 
          fill="none" stroke="#dc3545" stroke-width="3" stroke-dasharray="4,4" opacity="0.3"/>
</svg> 