<?xml version="1.0" encoding="UTF-8"?>
<svg width="800" height="400" viewBox="0 0 800 400" xmlns="http://www.w3.org/2000/svg">
    <!-- Background -->
    <rect width="800" height="400" fill="#f8f9fa"/>
    
    <!-- Title -->
    <text x="400" y="40" text-anchor="middle" font-family="Arial" font-size="24" fill="#212529">
        Resource Allocation Graph Example
    </text>

    <!-- Processes (Left Side) -->
    <g id="processes">
        <!-- P1 -->
        <rect x="100" y="100" width="120" height="50" rx="6" fill="#0d6efd" opacity="0.8"/>
        <text x="160" y="130" text-anchor="middle" font-family="Arial" font-size="16" fill="white">Process 1</text>
        
        <!-- P2 -->
        <rect x="100" y="180" width="120" height="50" rx="6" fill="#0d6efd" opacity="0.8"/>
        <text x="160" y="210" text-anchor="middle" font-family="Arial" font-size="16" fill="white">Process 2</text>
        
        <!-- P3 -->
        <rect x="100" y="260" width="120" height="50" rx="6" fill="#0d6efd" opacity="0.8"/>
        <text x="160" y="290" text-anchor="middle" font-family="Arial" font-size="16" fill="white">Process 3</text>
    </g>

    <!-- Resources (Right Side) -->
    <g id="resources">
        <!-- R1 -->
        <rect x="580" y="100" width="120" height="50" rx="6" fill="#198754" opacity="0.8"/>
        <text x="640" y="130" text-anchor="middle" font-family="Arial" font-size="16" fill="white">CPU</text>
        
        <!-- R2 -->
        <rect x="580" y="180" width="120" height="50" rx="6" fill="#198754" opacity="0.8"/>
        <text x="640" y="210" text-anchor="middle" font-family="Arial" font-size="16" fill="white">Memory</text>
        
        <!-- R3 -->
        <rect x="580" y="260" width="120" height="50" rx="6" fill="#198754" opacity="0.8"/>
        <text x="640" y="290" text-anchor="middle" font-family="Arial" font-size="16" fill="white">Printer</text>
    </g>

    <!-- Allocation Arrows -->
    <g id="arrows" stroke="#6c757d" stroke-width="2" marker-end="url(#arrowhead)">
        <!-- P1 -> R1 (Allocation) -->
        <path d="M 220,125 C 400,125 400,125 580,125" fill="none"/>
        
        <!-- P2 -> R2 (Request) -->
        <path d="M 220,205 C 400,205 400,205 580,205" fill="none" stroke-dasharray="6,6"/>
        
        <!-- R3 -> P3 (Allocation) -->
        <path d="M 580,285 C 400,285 400,285 220,285" fill="none"/>
    </g>

    <!-- Arrow Marker -->
    <defs>
        <marker id="arrowhead" markerWidth="10" markerHeight="7" refX="9" refY="3.5" orient="auto">
            <polygon points="0 0, 10 3.5, 0 7" fill="#6c757d"/>
        </marker>
    </defs>

    <!-- Legend -->
    <g id="legend" transform="translate(300, 330)">
        <!-- Process Legend -->
        <rect x="0" y="0" width="20" height="20" fill="#0d6efd" opacity="0.8"/>
        <text x="30" y="15" font-family="Arial" font-size="14" fill="#212529">Process</text>
        
        <!-- Resource Legend -->
        <rect x="100" y="0" width="20" height="20" fill="#198754" opacity="0.8"/>
        <text x="130" y="15" font-family="Arial" font-size="14" fill="#212529">Resource</text>
        
        <!-- Allocation Legend -->
        <line x1="200" y1="10" x2="240" y2="10" stroke="#6c757d" stroke-width="2"/>
        <text x="250" y="15" font-family="Arial" font-size="14" fill="#212529">Allocation</text>
        
        <!-- Request Legend -->
        <line x1="320" y1="10" x2="360" y2="10" stroke="#6c757d" stroke-width="2" stroke-dasharray="6,6"/>
        <text x="370" y="15" font-family="Arial" font-size="14" fill="#212529">Request</text>
    </g>
</svg> 